# xmcd CD database file
# Copyright (C) 1997 Ti Kan
# 
# Track frame offsets:
#     182
#     17412
#     35830
#     51670
#     65227
#     82515
#     93442
#     111102
#     123185
#     140027
# 
# Disc length: 2012 seconds
# 
# Revision: 1
# Processed by: cddbd v1.4b41PL1 Copyright (c) Steve Scherf et al.
# Submitted via: DiscPlay 4.0.4
# 
DISCID=8707da0a
DTITLE=JOHNNY LEE - THE BEST OF JOHNNY LEE
DYEAR=1900
DGENRE=
TTITLE0=LOOKIN' FOR LOVE
TTITLE1=CHEROKEE FIDDLE
TTITLE2=DANGEROUSLY LONELY
TTITLE3=MONEY IN MY POCKET
TTITLE4=YOU CAN'T FLY LIKE AN EAGLE
TTITLE5=HEART TO HEART TALK
TTITLE6=I CAN BE A HEARTBREAKER TOO
TTITLE7=MAYBE I WON'T LOVE YOU ANYMORE
TTITLE8=CROSS MY HEART
TTITLE9=TREAT HER LIKE A LADY
EXTD=
EXTT0=
EXTT1=
EXTT2=
EXTT3=
EXTT4=
EXTT5=
EXTT6=
EXTT7=
EXTT8=
EXTT9=
PLAYORDER=
